<svg width="50" height="50" viewBox="0 0 50 50" fill="none" xmlns="http://www.w3.org/2000/svg">
<path d="M25 0C38.825 0 50 11.2025 50 25C50 38.8025 38.825 50 25 50C11.2 50 0 38.8025 0 25C0 11.2025 11.2 0 25 0ZM25 32.3275C23.8 32.3275 22.825 33.3025 22.825 34.5025C22.825 35.7025 23.8 36.7025 25.025 36.7025C26.225 36.7025 27.2 35.7025 27.2 34.5025C27.2 33.3025 26.225 32.3275 25 32.3275ZM25 13.325C23.8 13.325 22.8 14.3275 22.8 15.525V26.575C22.8 27.7775 23.8 28.75 25 28.75C26.2 28.75 27.175 27.7775 27.175 26.575V15.525C27.175 14.3275 26.2 13.325 25 13.325Z" fill="white"/>
</svg>
